<mxfile host="app.diagrams.net" agent="Mozilla/5.0 (Windows NT 10.0; Win64; x64; rv:138.0) Gecko/20100101 Firefox/138.0" version="27.0.1">
  <diagram name="Page-1" id="-0xFrTp_H3o72aWYYTTd">
    <mxGraphModel dx="1375" dy="813" grid="1" gridSize="10" guides="1" tooltips="1" connect="1" arrows="1" fold="1" page="1" pageScale="1" pageWidth="850" pageHeight="1100" math="0" shadow="0">
      <root>
        <mxCell id="0" />
        <mxCell id="1" parent="0" />
        <mxCell id="zJZzDvlSBQIPVh5s0hVd-1" style="edgeStyle=orthogonalEdgeStyle;rounded=0;orthogonalLoop=1;jettySize=auto;html=1;exitX=0.5;exitY=1;exitDx=0;exitDy=0;entryX=0.5;entryY=0;entryDx=0;entryDy=0;endArrow=block;endFill=0;" edge="1" parent="1" source="zJZzDvlSBQIPVh5s0hVd-2" target="zJZzDvlSBQIPVh5s0hVd-4">
          <mxGeometry relative="1" as="geometry" />
        </mxCell>
        <mxCell id="zJZzDvlSBQIPVh5s0hVd-2" value="&lt;div&gt;Flujo de Atención de Incidentes - DISA&lt;/div&gt;" style="rounded=1;whiteSpace=wrap;html=1;fontSize=12;glass=0;strokeWidth=3;shadow=0;arcSize=33;strokeColor=#7EA6E0;" vertex="1" parent="1">
          <mxGeometry x="69" y="30" width="160" height="50" as="geometry" />
        </mxCell>
        <mxCell id="zJZzDvlSBQIPVh5s0hVd-3" style="edgeStyle=orthogonalEdgeStyle;rounded=0;orthogonalLoop=1;jettySize=auto;html=1;exitX=0.5;exitY=1;exitDx=0;exitDy=0;endArrow=block;endFill=0;" edge="1" parent="1" source="zJZzDvlSBQIPVh5s0hVd-4">
          <mxGeometry relative="1" as="geometry">
            <mxPoint x="149" y="190" as="targetPoint" />
          </mxGeometry>
        </mxCell>
        <mxCell id="zJZzDvlSBQIPVh5s0hVd-4" value="Reporte de Incidentes" style="rounded=0;whiteSpace=wrap;html=1;strokeWidth=2;strokeColor=#A9C4EB;" vertex="1" parent="1">
          <mxGeometry x="68" y="110" width="160" height="50" as="geometry" />
        </mxCell>
        <mxCell id="zJZzDvlSBQIPVh5s0hVd-5" style="edgeStyle=orthogonalEdgeStyle;rounded=0;orthogonalLoop=1;jettySize=auto;html=1;exitX=0.5;exitY=0;exitDx=0;exitDy=0;endArrow=none;startFill=0;startArrow=block;" edge="1" parent="1" source="zJZzDvlSBQIPVh5s0hVd-7">
          <mxGeometry relative="1" as="geometry">
            <mxPoint x="99" y="190" as="targetPoint" />
          </mxGeometry>
        </mxCell>
        <mxCell id="zJZzDvlSBQIPVh5s0hVd-6" style="edgeStyle=orthogonalEdgeStyle;rounded=0;orthogonalLoop=1;jettySize=auto;html=1;exitX=0.5;exitY=1;exitDx=0;exitDy=0;endArrow=block;endFill=0;" edge="1" parent="1" source="zJZzDvlSBQIPVh5s0hVd-7">
          <mxGeometry relative="1" as="geometry">
            <mxPoint x="99" y="310" as="targetPoint" />
          </mxGeometry>
        </mxCell>
        <mxCell id="zJZzDvlSBQIPVh5s0hVd-7" value="&lt;div&gt;Vía Internet: Mesa de Ayuda&lt;/div&gt;&lt;div&gt;(https://soporte.disahp.com.mx)&lt;/div&gt;" style="rounded=0;whiteSpace=wrap;html=1;strokeWidth=2;strokeColor=#A9C4EB;" vertex="1" parent="1">
          <mxGeometry x="9" y="220" width="180" height="60" as="geometry" />
        </mxCell>
        <mxCell id="zJZzDvlSBQIPVh5s0hVd-8" style="edgeStyle=orthogonalEdgeStyle;rounded=0;orthogonalLoop=1;jettySize=auto;html=1;exitX=0.5;exitY=0;exitDx=0;exitDy=0;endArrow=none;startFill=0;startArrow=block;" edge="1" parent="1" source="zJZzDvlSBQIPVh5s0hVd-10">
          <mxGeometry relative="1" as="geometry">
            <mxPoint x="599" y="190" as="targetPoint" />
          </mxGeometry>
        </mxCell>
        <mxCell id="zJZzDvlSBQIPVh5s0hVd-9" style="edgeStyle=orthogonalEdgeStyle;rounded=0;orthogonalLoop=1;jettySize=auto;html=1;exitX=0.5;exitY=1;exitDx=0;exitDy=0;endArrow=block;endFill=0;" edge="1" parent="1" source="zJZzDvlSBQIPVh5s0hVd-10">
          <mxGeometry relative="1" as="geometry">
            <mxPoint x="599" y="310" as="targetPoint" />
          </mxGeometry>
        </mxCell>
        <mxCell id="zJZzDvlSBQIPVh5s0hVd-10" value="&lt;div&gt;Vía Correo Electrónico&lt;/div&gt;&lt;div&gt;( disa@disahp.com.mx)&lt;/div&gt;" style="rounded=0;whiteSpace=wrap;html=1;strokeWidth=2;strokeColor=#A9C4EB;" vertex="1" parent="1">
          <mxGeometry x="519" y="220" width="160" height="60" as="geometry" />
        </mxCell>
        <mxCell id="zJZzDvlSBQIPVh5s0hVd-11" style="edgeStyle=orthogonalEdgeStyle;rounded=0;orthogonalLoop=1;jettySize=auto;html=1;exitX=0.5;exitY=0;exitDx=0;exitDy=0;endArrow=none;startFill=0;startArrow=block;" edge="1" parent="1" source="zJZzDvlSBQIPVh5s0hVd-13">
          <mxGeometry relative="1" as="geometry">
            <mxPoint x="354" y="190" as="targetPoint" />
          </mxGeometry>
        </mxCell>
        <mxCell id="zJZzDvlSBQIPVh5s0hVd-12" style="edgeStyle=orthogonalEdgeStyle;rounded=0;orthogonalLoop=1;jettySize=auto;html=1;exitX=0.5;exitY=1;exitDx=0;exitDy=0;endArrow=block;endFill=0;" edge="1" parent="1" source="zJZzDvlSBQIPVh5s0hVd-13">
          <mxGeometry relative="1" as="geometry">
            <mxPoint x="354" y="310" as="targetPoint" />
          </mxGeometry>
        </mxCell>
        <mxCell id="zJZzDvlSBQIPVh5s0hVd-13" value="&lt;div&gt;Vía Telefónica&lt;/div&gt;&lt;div&gt;( 800 849 13 34 / 722 215 6453)&lt;/div&gt;" style="rounded=0;whiteSpace=wrap;html=1;strokeWidth=2;strokeColor=#A9C4EB;" vertex="1" parent="1">
          <mxGeometry x="261.5" y="220" width="185" height="60" as="geometry" />
        </mxCell>
        <mxCell id="zJZzDvlSBQIPVh5s0hVd-14" style="edgeStyle=orthogonalEdgeStyle;rounded=0;orthogonalLoop=1;jettySize=auto;html=1;exitX=1;exitY=0.5;exitDx=0;exitDy=0;entryX=0;entryY=0.5;entryDx=0;entryDy=0;endArrow=block;endFill=0;" edge="1" parent="1" target="zJZzDvlSBQIPVh5s0hVd-21">
          <mxGeometry relative="1" as="geometry">
            <mxPoint x="218" y="490" as="sourcePoint" />
          </mxGeometry>
        </mxCell>
        <mxCell id="zJZzDvlSBQIPVh5s0hVd-15" value="SI" style="edgeLabel;html=1;align=center;verticalAlign=middle;resizable=0;points=[];" vertex="1" connectable="0" parent="zJZzDvlSBQIPVh5s0hVd-14">
          <mxGeometry x="-0.1363" y="-3" relative="1" as="geometry">
            <mxPoint as="offset" />
          </mxGeometry>
        </mxCell>
        <mxCell id="zJZzDvlSBQIPVh5s0hVd-16" style="edgeStyle=orthogonalEdgeStyle;rounded=0;orthogonalLoop=1;jettySize=auto;html=1;exitX=0.5;exitY=1;exitDx=0;exitDy=0;entryX=0.5;entryY=0;entryDx=0;entryDy=0;endArrow=block;endFill=0;" edge="1" parent="1" target="zJZzDvlSBQIPVh5s0hVd-23">
          <mxGeometry relative="1" as="geometry">
            <mxPoint x="143.5" y="540" as="sourcePoint" />
          </mxGeometry>
        </mxCell>
        <mxCell id="zJZzDvlSBQIPVh5s0hVd-17" value="NO" style="edgeLabel;html=1;align=center;verticalAlign=middle;resizable=0;points=[];" vertex="1" connectable="0" parent="zJZzDvlSBQIPVh5s0hVd-16">
          <mxGeometry x="-0.2537" y="2" relative="1" as="geometry">
            <mxPoint as="offset" />
          </mxGeometry>
        </mxCell>
        <mxCell id="zJZzDvlSBQIPVh5s0hVd-18" style="edgeStyle=orthogonalEdgeStyle;rounded=0;orthogonalLoop=1;jettySize=auto;html=1;exitX=0.5;exitY=0;exitDx=0;exitDy=0;endArrow=none;startFill=0;startArrow=block;" edge="1" parent="1" source="zJZzDvlSBQIPVh5s0hVd-20">
          <mxGeometry relative="1" as="geometry">
            <mxPoint x="143" y="310" as="targetPoint" />
            <Array as="points">
              <mxPoint x="143" y="340" />
              <mxPoint x="144" y="340" />
            </Array>
          </mxGeometry>
        </mxCell>
        <mxCell id="zJZzDvlSBQIPVh5s0hVd-19" style="edgeStyle=orthogonalEdgeStyle;rounded=0;orthogonalLoop=1;jettySize=auto;html=1;exitX=0.5;exitY=1;exitDx=0;exitDy=0;entryX=0.5;entryY=0;entryDx=0;entryDy=0;endArrow=block;endFill=0;" edge="1" parent="1" source="zJZzDvlSBQIPVh5s0hVd-20">
          <mxGeometry relative="1" as="geometry">
            <mxPoint x="143.5" y="440" as="targetPoint" />
          </mxGeometry>
        </mxCell>
        <mxCell id="zJZzDvlSBQIPVh5s0hVd-20" value="Proporcionar el mínimo de datos para el registro " style="rounded=0;whiteSpace=wrap;html=1;strokeColor=#A9C4EB;strokeWidth=2;" vertex="1" parent="1">
          <mxGeometry x="58" y="350" width="170" height="60" as="geometry" />
        </mxCell>
        <mxCell id="zJZzDvlSBQIPVh5s0hVd-21" value="El Equipo de Soporte Técnico de la Mesa de Ayuda se pondrá en contacto con el enlace para gestionar la atención." style="rounded=0;whiteSpace=wrap;html=1;strokeWidth=2;strokeColor=#A9C4EB;" vertex="1" parent="1">
          <mxGeometry x="294" y="445" width="185" height="90" as="geometry" />
        </mxCell>
        <mxCell id="zJZzDvlSBQIPVh5s0hVd-82" style="edgeStyle=orthogonalEdgeStyle;rounded=0;orthogonalLoop=1;jettySize=auto;html=1;exitX=1;exitY=0.5;exitDx=0;exitDy=0;entryX=0;entryY=0.5;entryDx=0;entryDy=0;endArrow=block;endFill=0;" edge="1" parent="1" source="zJZzDvlSBQIPVh5s0hVd-23" target="zJZzDvlSBQIPVh5s0hVd-25">
          <mxGeometry relative="1" as="geometry" />
        </mxCell>
        <mxCell id="zJZzDvlSBQIPVh5s0hVd-23" value="Se hace el Registro del Reporte" style="rounded=0;whiteSpace=wrap;html=1;strokeWidth=2;strokeColor=#A9C4EB;" vertex="1" parent="1">
          <mxGeometry x="50" y="570" width="180" height="55" as="geometry" />
        </mxCell>
        <mxCell id="zJZzDvlSBQIPVh5s0hVd-24" style="edgeStyle=orthogonalEdgeStyle;rounded=0;orthogonalLoop=1;jettySize=auto;html=1;exitX=1;exitY=0.5;exitDx=0;exitDy=0;entryX=0;entryY=0.5;entryDx=0;entryDy=0;endArrow=block;endFill=0;entryPerimeter=0;" edge="1" parent="1" source="zJZzDvlSBQIPVh5s0hVd-25" target="zJZzDvlSBQIPVh5s0hVd-47">
          <mxGeometry relative="1" as="geometry">
            <mxPoint x="545.5" y="600" as="targetPoint" />
          </mxGeometry>
        </mxCell>
        <mxCell id="zJZzDvlSBQIPVh5s0hVd-25" value="Envío automático de la confirmación vía correo electrónico" style="rounded=0;whiteSpace=wrap;html=1;strokeWidth=2;strokeColor=#A9C4EB;" vertex="1" parent="1">
          <mxGeometry x="294" y="567.5" width="186" height="60" as="geometry" />
        </mxCell>
        <mxCell id="zJZzDvlSBQIPVh5s0hVd-28" value="" style="endArrow=none;html=1;rounded=0;" edge="1" parent="1">
          <mxGeometry width="50" height="50" relative="1" as="geometry">
            <mxPoint x="99" y="190" as="sourcePoint" />
            <mxPoint x="599" y="190" as="targetPoint" />
          </mxGeometry>
        </mxCell>
        <mxCell id="zJZzDvlSBQIPVh5s0hVd-29" value="" style="endArrow=none;html=1;rounded=0;" edge="1" parent="1">
          <mxGeometry width="50" height="50" relative="1" as="geometry">
            <mxPoint x="99" y="310" as="sourcePoint" />
            <mxPoint x="599" y="310" as="targetPoint" />
          </mxGeometry>
        </mxCell>
        <mxCell id="zJZzDvlSBQIPVh5s0hVd-31" value="Personal de Soporte Técnico acude al sitio de ubicación del equipo para diagnosticar y dar solución" style="rounded=0;whiteSpace=wrap;html=1;strokeWidth=2;strokeColor=#A9C4EB;" vertex="1" parent="1">
          <mxGeometry x="294" y="985.5" width="186" height="70" as="geometry" />
        </mxCell>
        <mxCell id="zJZzDvlSBQIPVh5s0hVd-32" value="Se define la prioridad del incidente" style="rounded=0;whiteSpace=wrap;html=1;strokeWidth=2;strokeColor=#A9C4EB;" vertex="1" parent="1">
          <mxGeometry x="50" y="660" width="180" height="60" as="geometry" />
        </mxCell>
        <mxCell id="zJZzDvlSBQIPVh5s0hVd-88" style="edgeStyle=orthogonalEdgeStyle;rounded=0;orthogonalLoop=1;jettySize=auto;html=1;exitX=0.5;exitY=0;exitDx=0;exitDy=0;endArrow=none;startFill=0;startArrow=block;" edge="1" parent="1" source="zJZzDvlSBQIPVh5s0hVd-33">
          <mxGeometry relative="1" as="geometry">
            <mxPoint x="140" y="740" as="targetPoint" />
          </mxGeometry>
        </mxCell>
        <mxCell id="zJZzDvlSBQIPVh5s0hVd-94" style="edgeStyle=orthogonalEdgeStyle;rounded=0;orthogonalLoop=1;jettySize=auto;html=1;exitX=0.5;exitY=1;exitDx=0;exitDy=0;endArrow=block;endFill=0;" edge="1" parent="1" source="zJZzDvlSBQIPVh5s0hVd-33">
          <mxGeometry relative="1" as="geometry">
            <mxPoint x="140" y="870" as="targetPoint" />
          </mxGeometry>
        </mxCell>
        <mxCell id="zJZzDvlSBQIPVh5s0hVd-33" value="Se define el incidente como Prioridad Baja" style="rounded=0;whiteSpace=wrap;html=1;strokeWidth=2;strokeColor=#A9C4EB;" vertex="1" parent="1">
          <mxGeometry x="50" y="780" width="180" height="60" as="geometry" />
        </mxCell>
        <mxCell id="zJZzDvlSBQIPVh5s0hVd-35" style="edgeStyle=orthogonalEdgeStyle;rounded=0;orthogonalLoop=1;jettySize=auto;html=1;exitX=1;exitY=0.5;exitDx=0;exitDy=0;exitPerimeter=0;endArrow=block;endFill=0;" edge="1" parent="1" source="zJZzDvlSBQIPVh5s0hVd-37" target="zJZzDvlSBQIPVh5s0hVd-44">
          <mxGeometry relative="1" as="geometry" />
        </mxCell>
        <mxCell id="zJZzDvlSBQIPVh5s0hVd-36" value="SI" style="edgeLabel;html=1;align=center;verticalAlign=middle;resizable=0;points=[];" vertex="1" connectable="0" parent="zJZzDvlSBQIPVh5s0hVd-35">
          <mxGeometry x="0.2" relative="1" as="geometry">
            <mxPoint as="offset" />
          </mxGeometry>
        </mxCell>
        <mxCell id="zJZzDvlSBQIPVh5s0hVd-37" value="¿Se da solución a la falla?" style="strokeWidth=2;html=1;shape=mxgraph.flowchart.decision;whiteSpace=wrap;" vertex="1" parent="1">
          <mxGeometry x="310" y="1130" width="148.5" height="100" as="geometry" />
        </mxCell>
        <mxCell id="zJZzDvlSBQIPVh5s0hVd-42" value="&lt;div&gt;Hoja de Servicio para el registro&amp;nbsp;&lt;/div&gt;&lt;div&gt;de la Actividad y Obersvaciones&lt;/div&gt;" style="strokeWidth=2;html=1;shape=mxgraph.flowchart.multi-document;whiteSpace=wrap;align=left;fillColor=#f5f5f5;fontColor=#333333;strokeColor=#666666;" vertex="1" parent="1">
          <mxGeometry x="502.5" y="973" width="210" height="95" as="geometry" />
        </mxCell>
        <mxCell id="zJZzDvlSBQIPVh5s0hVd-44" value="El Equipo de Mesa de Ayuda cierra el ticket" style="rounded=0;whiteSpace=wrap;html=1;strokeColor=#A9C4EB;strokeWidth=2;" vertex="1" parent="1">
          <mxGeometry x="508" y="1150" width="140" height="60" as="geometry" />
        </mxCell>
        <mxCell id="zJZzDvlSBQIPVh5s0hVd-45" value="Conformidad de Servicio firmada por el Enlace Técnico" style="strokeWidth=2;html=1;shape=mxgraph.flowchart.document2;whiteSpace=wrap;size=0.25;align=left;fillColor=#f5f5f5;fontColor=#333333;strokeColor=#666666;" vertex="1" parent="1">
          <mxGeometry x="674" y="1145" width="163" height="70" as="geometry" />
        </mxCell>
        <mxCell id="zJZzDvlSBQIPVh5s0hVd-46" style="edgeStyle=orthogonalEdgeStyle;rounded=0;orthogonalLoop=1;jettySize=auto;html=1;exitX=1;exitY=0.5;exitDx=0;exitDy=0;entryX=0;entryY=0.5;entryDx=0;entryDy=0;entryPerimeter=0;endArrow=block;endFill=0;" edge="1" parent="1" source="zJZzDvlSBQIPVh5s0hVd-44" target="zJZzDvlSBQIPVh5s0hVd-45">
          <mxGeometry relative="1" as="geometry" />
        </mxCell>
        <mxCell id="zJZzDvlSBQIPVh5s0hVd-47" value="Confirmación de Registro del Reporte con Número de Ticket o Folio de Reporte" style="strokeWidth=2;html=1;shape=mxgraph.flowchart.document2;whiteSpace=wrap;size=0.25;align=left;fillColor=#f5f5f5;fontColor=#333333;strokeColor=#666666;" vertex="1" parent="1">
          <mxGeometry x="519" y="557.5" width="180" height="80" as="geometry" />
        </mxCell>
        <mxCell id="zJZzDvlSBQIPVh5s0hVd-104" style="edgeStyle=orthogonalEdgeStyle;rounded=0;orthogonalLoop=1;jettySize=auto;html=1;exitX=1;exitY=0.5;exitDx=0;exitDy=0;entryX=0;entryY=0.5;entryDx=0;entryDy=0;endArrow=block;endFill=0;" edge="1" parent="1" source="zJZzDvlSBQIPVh5s0hVd-49" target="zJZzDvlSBQIPVh5s0hVd-51">
          <mxGeometry relative="1" as="geometry" />
        </mxCell>
        <mxCell id="zJZzDvlSBQIPVh5s0hVd-49" value="Se deja un Equipo de Soporte de características similares" style="rounded=0;whiteSpace=wrap;html=1;strokeColor=#A9C4EB;strokeWidth=2;" vertex="1" parent="1">
          <mxGeometry x="311.25" y="1370" width="146" height="70" as="geometry" />
        </mxCell>
        <mxCell id="zJZzDvlSBQIPVh5s0hVd-50" style="edgeStyle=orthogonalEdgeStyle;rounded=0;orthogonalLoop=1;jettySize=auto;html=1;exitX=0.5;exitY=1;exitDx=0;exitDy=0;entryX=0.5;entryY=0;entryDx=0;entryDy=0;endArrow=block;endFill=0;" edge="1" parent="1" source="zJZzDvlSBQIPVh5s0hVd-49" target="zJZzDvlSBQIPVh5s0hVd-53">
          <mxGeometry relative="1" as="geometry" />
        </mxCell>
        <mxCell id="zJZzDvlSBQIPVh5s0hVd-51" value="El personal realiza el intercambio de disco duro para equipo portátil o de escritorio" style="rounded=0;whiteSpace=wrap;html=1;strokeColor=#A9C4EB;strokeWidth=2;" vertex="1" parent="1">
          <mxGeometry x="495.5" y="1370" width="142" height="70" as="geometry" />
        </mxCell>
        <mxCell id="zJZzDvlSBQIPVh5s0hVd-52" style="edgeStyle=orthogonalEdgeStyle;rounded=0;orthogonalLoop=1;jettySize=auto;html=1;exitX=0.5;exitY=1;exitDx=0;exitDy=0;entryX=0.5;entryY=0;entryDx=0;entryDy=0;endArrow=block;endFill=0;" edge="1" parent="1" source="zJZzDvlSBQIPVh5s0hVd-53" target="zJZzDvlSBQIPVh5s0hVd-55">
          <mxGeometry relative="1" as="geometry" />
        </mxCell>
        <mxCell id="zJZzDvlSBQIPVh5s0hVd-53" value="DISA tramita y hace seguimiento de garantías con el fabricante" style="rounded=0;whiteSpace=wrap;html=1;strokeWidth=2;strokeColor=#A9C4EB;" vertex="1" parent="1">
          <mxGeometry x="310" y="1470" width="150" height="70" as="geometry" />
        </mxCell>
        <mxCell id="zJZzDvlSBQIPVh5s0hVd-54" style="edgeStyle=orthogonalEdgeStyle;rounded=0;orthogonalLoop=1;jettySize=auto;html=1;exitX=0.5;exitY=1;exitDx=0;exitDy=0;entryX=0.5;entryY=0;entryDx=0;entryDy=0;endArrow=block;endFill=0;" edge="1" parent="1" source="zJZzDvlSBQIPVh5s0hVd-55" target="zJZzDvlSBQIPVh5s0hVd-65">
          <mxGeometry relative="1" as="geometry" />
        </mxCell>
        <mxCell id="zJZzDvlSBQIPVh5s0hVd-55" value="Se notifica al Enlace Técnico del Estatus" style="rounded=0;whiteSpace=wrap;html=1;strokeWidth=2;strokeColor=#A9C4EB;" vertex="1" parent="1">
          <mxGeometry x="310" y="1570" width="150" height="60" as="geometry" />
        </mxCell>
        <mxCell id="zJZzDvlSBQIPVh5s0hVd-56" value="Estatus del Reporte" style="strokeWidth=2;html=1;shape=mxgraph.flowchart.document2;whiteSpace=wrap;size=0.25;align=left;fillColor=#f5f5f5;fontColor=#333333;strokeColor=#666666;" vertex="1" parent="1">
          <mxGeometry x="495.5" y="1573.75" width="122.5" height="52.5" as="geometry" />
        </mxCell>
        <mxCell id="zJZzDvlSBQIPVh5s0hVd-57" style="edgeStyle=orthogonalEdgeStyle;rounded=0;orthogonalLoop=1;jettySize=auto;html=1;exitX=1;exitY=0.5;exitDx=0;exitDy=0;entryX=0;entryY=0.5;entryDx=0;entryDy=0;entryPerimeter=0;endArrow=block;endFill=0;" edge="1" parent="1" source="zJZzDvlSBQIPVh5s0hVd-55" target="zJZzDvlSBQIPVh5s0hVd-56">
          <mxGeometry relative="1" as="geometry" />
        </mxCell>
        <mxCell id="zJZzDvlSBQIPVh5s0hVd-58" style="edgeStyle=orthogonalEdgeStyle;rounded=0;orthogonalLoop=1;jettySize=auto;html=1;exitX=0.5;exitY=1;exitDx=0;exitDy=0;endArrow=block;endFill=0;strokeColor=#000000;" edge="1" parent="1" source="zJZzDvlSBQIPVh5s0hVd-32">
          <mxGeometry relative="1" as="geometry">
            <mxPoint x="140" y="740" as="targetPoint" />
          </mxGeometry>
        </mxCell>
        <mxCell id="zJZzDvlSBQIPVh5s0hVd-59" style="edgeStyle=orthogonalEdgeStyle;rounded=0;orthogonalLoop=1;jettySize=auto;html=1;exitX=0.5;exitY=1;exitDx=0;exitDy=0;entryX=0.5;entryY=0;entryDx=0;entryDy=0;endArrow=block;endFill=0;" edge="1" parent="1" source="zJZzDvlSBQIPVh5s0hVd-60" target="zJZzDvlSBQIPVh5s0hVd-49">
          <mxGeometry relative="1" as="geometry" />
        </mxCell>
        <mxCell id="zJZzDvlSBQIPVh5s0hVd-60" value="El personal retira el Equipo Asigando" style="rounded=0;whiteSpace=wrap;html=1;strokeColor=#A9C4EB;strokeWidth=2;" vertex="1" parent="1">
          <mxGeometry x="311" y="1280" width="150" height="60" as="geometry" />
        </mxCell>
        <mxCell id="zJZzDvlSBQIPVh5s0hVd-61" style="edgeStyle=orthogonalEdgeStyle;rounded=0;orthogonalLoop=1;jettySize=auto;html=1;exitX=0.5;exitY=1;exitDx=0;exitDy=0;exitPerimeter=0;entryX=0.5;entryY=0;entryDx=0;entryDy=0;entryPerimeter=0;endArrow=block;endFill=0;" edge="1" parent="1" source="zJZzDvlSBQIPVh5s0hVd-37">
          <mxGeometry relative="1" as="geometry">
            <mxPoint x="384.25" y="1280" as="targetPoint" />
          </mxGeometry>
        </mxCell>
        <mxCell id="zJZzDvlSBQIPVh5s0hVd-62" value="NO" style="edgeLabel;html=1;align=center;verticalAlign=middle;resizable=0;points=[];" vertex="1" connectable="0" parent="zJZzDvlSBQIPVh5s0hVd-61">
          <mxGeometry x="-0.4" y="-2" relative="1" as="geometry">
            <mxPoint as="offset" />
          </mxGeometry>
        </mxCell>
        <mxCell id="zJZzDvlSBQIPVh5s0hVd-64" style="edgeStyle=orthogonalEdgeStyle;rounded=0;orthogonalLoop=1;jettySize=auto;html=1;exitX=1;exitY=0.5;exitDx=0;exitDy=0;entryX=0;entryY=0.5;entryDx=0;entryDy=0;endArrow=block;endFill=0;" edge="1" parent="1" source="zJZzDvlSBQIPVh5s0hVd-65" target="zJZzDvlSBQIPVh5s0hVd-66">
          <mxGeometry relative="1" as="geometry" />
        </mxCell>
        <mxCell id="zJZzDvlSBQIPVh5s0hVd-65" value="El personal de Soporte Técnico acude a la Entrega del Equipo, una vez reparado" style="rounded=0;whiteSpace=wrap;html=1;strokeWidth=2;strokeColor=#A9C4EB;" vertex="1" parent="1">
          <mxGeometry x="310" y="1660" width="152" height="80" as="geometry" />
        </mxCell>
        <mxCell id="zJZzDvlSBQIPVh5s0hVd-66" value="Realizar el cambio del disco duro para equipo portátil o de escritorio" style="rounded=0;whiteSpace=wrap;html=1;strokeWidth=2;strokeColor=#A9C4EB;" vertex="1" parent="1">
          <mxGeometry x="495.5" y="1670" width="152.5" height="60" as="geometry" />
        </mxCell>
        <mxCell id="zJZzDvlSBQIPVh5s0hVd-67" value="Registro de Retiro de Equipo" style="strokeWidth=2;html=1;shape=mxgraph.flowchart.document2;whiteSpace=wrap;size=0.25;align=left;fillColor=#f5f5f5;fontColor=#333333;strokeColor=#666666;" vertex="1" parent="1">
          <mxGeometry x="495.5" y="1280" width="132.5" height="60" as="geometry" />
        </mxCell>
        <mxCell id="zJZzDvlSBQIPVh5s0hVd-68" style="edgeStyle=orthogonalEdgeStyle;rounded=0;orthogonalLoop=1;jettySize=auto;html=1;exitX=1;exitY=0.5;exitDx=0;exitDy=0;entryX=0;entryY=0.5;entryDx=0;entryDy=0;entryPerimeter=0;endArrow=block;endFill=0;" edge="1" parent="1" source="zJZzDvlSBQIPVh5s0hVd-60" target="zJZzDvlSBQIPVh5s0hVd-67">
          <mxGeometry relative="1" as="geometry" />
        </mxCell>
        <mxCell id="zJZzDvlSBQIPVh5s0hVd-69" value="Hoja de Servicio" style="strokeWidth=2;html=1;shape=mxgraph.flowchart.document2;whiteSpace=wrap;size=0.25;align=left;fillColor=#f5f5f5;fontColor=#333333;strokeColor=#666666;" vertex="1" parent="1">
          <mxGeometry x="674" y="1670" width="121" height="60" as="geometry" />
        </mxCell>
        <mxCell id="zJZzDvlSBQIPVh5s0hVd-70" value="Se cierra el ticket del Reporte" style="strokeWidth=5;html=1;shape=mxgraph.flowchart.terminator;whiteSpace=wrap;strokeColor=#9AC7BF;" vertex="1" parent="1">
          <mxGeometry x="315.5" y="1770" width="142" height="60" as="geometry" />
        </mxCell>
        <mxCell id="zJZzDvlSBQIPVh5s0hVd-72" value="¿Falta de datos para el registro?" style="strokeWidth=2;html=1;shape=mxgraph.flowchart.decision;whiteSpace=wrap;" vertex="1" parent="1">
          <mxGeometry x="62.5" y="440" width="161" height="100" as="geometry" />
        </mxCell>
        <mxCell id="zJZzDvlSBQIPVh5s0hVd-81" style="edgeStyle=orthogonalEdgeStyle;rounded=0;orthogonalLoop=1;jettySize=auto;html=1;exitX=0.5;exitY=1;exitDx=0;exitDy=0;endArrow=block;endFill=0;" edge="1" parent="1" source="zJZzDvlSBQIPVh5s0hVd-23">
          <mxGeometry relative="1" as="geometry">
            <mxPoint x="140" y="660" as="targetPoint" />
          </mxGeometry>
        </mxCell>
        <mxCell id="zJZzDvlSBQIPVh5s0hVd-85" value="" style="endArrow=none;html=1;rounded=0;" edge="1" parent="1">
          <mxGeometry width="50" height="50" relative="1" as="geometry">
            <mxPoint x="140" y="740" as="sourcePoint" />
            <mxPoint x="390" y="740" as="targetPoint" />
          </mxGeometry>
        </mxCell>
        <mxCell id="zJZzDvlSBQIPVh5s0hVd-89" style="edgeStyle=orthogonalEdgeStyle;rounded=0;orthogonalLoop=1;jettySize=auto;html=1;exitX=0.5;exitY=0;exitDx=0;exitDy=0;endArrow=none;startFill=0;startArrow=block;" edge="1" parent="1" source="zJZzDvlSBQIPVh5s0hVd-86">
          <mxGeometry relative="1" as="geometry">
            <mxPoint x="387" y="740" as="targetPoint" />
          </mxGeometry>
        </mxCell>
        <mxCell id="zJZzDvlSBQIPVh5s0hVd-92" style="edgeStyle=orthogonalEdgeStyle;rounded=0;orthogonalLoop=1;jettySize=auto;html=1;exitX=0.5;exitY=1;exitDx=0;exitDy=0;entryX=0.5;entryY=0;entryDx=0;entryDy=0;endArrow=block;endFill=0;" edge="1" parent="1" source="zJZzDvlSBQIPVh5s0hVd-86" target="zJZzDvlSBQIPVh5s0hVd-31">
          <mxGeometry relative="1" as="geometry" />
        </mxCell>
        <mxCell id="zJZzDvlSBQIPVh5s0hVd-86" value="Se define el incidente como Prioridad Alta" style="rounded=0;whiteSpace=wrap;html=1;strokeWidth=2;strokeColor=#A9C4EB;" vertex="1" parent="1">
          <mxGeometry x="294" y="780" width="186" height="60" as="geometry" />
        </mxCell>
        <mxCell id="zJZzDvlSBQIPVh5s0hVd-93" value="El personal se contacta vía telefónica para hacer pruebas" style="rounded=0;whiteSpace=wrap;html=1;strokeColor=#A9C4EB;strokeWidth=2;" vertex="1" parent="1">
          <mxGeometry x="50" y="872.5" width="180" height="77.5" as="geometry" />
        </mxCell>
        <mxCell id="zJZzDvlSBQIPVh5s0hVd-99" style="edgeStyle=orthogonalEdgeStyle;rounded=0;orthogonalLoop=1;jettySize=auto;html=1;exitX=1;exitY=0.5;exitDx=0;exitDy=0;exitPerimeter=0;entryX=0;entryY=0.5;entryDx=0;entryDy=0;endArrow=block;endFill=0;" edge="1" parent="1" source="zJZzDvlSBQIPVh5s0hVd-98" target="zJZzDvlSBQIPVh5s0hVd-31">
          <mxGeometry relative="1" as="geometry" />
        </mxCell>
        <mxCell id="zJZzDvlSBQIPVh5s0hVd-101" value="NO" style="edgeLabel;html=1;align=center;verticalAlign=middle;resizable=0;points=[];" vertex="1" connectable="0" parent="zJZzDvlSBQIPVh5s0hVd-99">
          <mxGeometry x="-0.3029" y="-1" relative="1" as="geometry">
            <mxPoint y="1" as="offset" />
          </mxGeometry>
        </mxCell>
        <mxCell id="zJZzDvlSBQIPVh5s0hVd-98" value="¿Se da solución a la falla?" style="strokeWidth=2;html=1;shape=mxgraph.flowchart.decision;whiteSpace=wrap;" vertex="1" parent="1">
          <mxGeometry x="68.75" y="972" width="148.5" height="97" as="geometry" />
        </mxCell>
        <mxCell id="zJZzDvlSBQIPVh5s0hVd-100" style="edgeStyle=orthogonalEdgeStyle;rounded=0;orthogonalLoop=1;jettySize=auto;html=1;exitX=0.5;exitY=1;exitDx=0;exitDy=0;entryX=0.5;entryY=0;entryDx=0;entryDy=0;entryPerimeter=0;endArrow=block;endFill=0;" edge="1" parent="1" source="zJZzDvlSBQIPVh5s0hVd-93" target="zJZzDvlSBQIPVh5s0hVd-98">
          <mxGeometry relative="1" as="geometry" />
        </mxCell>
        <mxCell id="zJZzDvlSBQIPVh5s0hVd-102" style="edgeStyle=orthogonalEdgeStyle;rounded=0;orthogonalLoop=1;jettySize=auto;html=1;exitX=1;exitY=0.5;exitDx=0;exitDy=0;entryX=0;entryY=0.5;entryDx=0;entryDy=0;entryPerimeter=0;endArrow=block;endFill=0;" edge="1" parent="1" source="zJZzDvlSBQIPVh5s0hVd-31" target="zJZzDvlSBQIPVh5s0hVd-42">
          <mxGeometry relative="1" as="geometry" />
        </mxCell>
        <mxCell id="zJZzDvlSBQIPVh5s0hVd-103" style="edgeStyle=orthogonalEdgeStyle;rounded=0;orthogonalLoop=1;jettySize=auto;html=1;exitX=0.5;exitY=1;exitDx=0;exitDy=0;entryX=0.5;entryY=0;entryDx=0;entryDy=0;entryPerimeter=0;" edge="1" parent="1" source="zJZzDvlSBQIPVh5s0hVd-31" target="zJZzDvlSBQIPVh5s0hVd-37">
          <mxGeometry relative="1" as="geometry" />
        </mxCell>
        <mxCell id="zJZzDvlSBQIPVh5s0hVd-105" value="Se cierra el ticket del Reporte" style="strokeWidth=5;html=1;shape=mxgraph.flowchart.terminator;whiteSpace=wrap;strokeColor=#9AC7BF;" vertex="1" parent="1">
          <mxGeometry x="72" y="1120" width="142" height="60" as="geometry" />
        </mxCell>
        <mxCell id="zJZzDvlSBQIPVh5s0hVd-106" style="edgeStyle=orthogonalEdgeStyle;rounded=0;orthogonalLoop=1;jettySize=auto;html=1;exitX=0.5;exitY=1;exitDx=0;exitDy=0;exitPerimeter=0;entryX=0.5;entryY=0;entryDx=0;entryDy=0;entryPerimeter=0;endArrow=block;endFill=0;" edge="1" parent="1" source="zJZzDvlSBQIPVh5s0hVd-98" target="zJZzDvlSBQIPVh5s0hVd-105">
          <mxGeometry relative="1" as="geometry" />
        </mxCell>
        <mxCell id="zJZzDvlSBQIPVh5s0hVd-107" value="SI" style="edgeLabel;html=1;align=center;verticalAlign=middle;resizable=0;points=[];" vertex="1" connectable="0" parent="zJZzDvlSBQIPVh5s0hVd-106">
          <mxGeometry x="-0.2941" y="-1" relative="1" as="geometry">
            <mxPoint as="offset" />
          </mxGeometry>
        </mxCell>
        <mxCell id="zJZzDvlSBQIPVh5s0hVd-108" style="edgeStyle=orthogonalEdgeStyle;rounded=0;orthogonalLoop=1;jettySize=auto;html=1;exitX=1;exitY=0.5;exitDx=0;exitDy=0;entryX=0;entryY=0.5;entryDx=0;entryDy=0;entryPerimeter=0;endArrow=block;endFill=0;" edge="1" parent="1" source="zJZzDvlSBQIPVh5s0hVd-66" target="zJZzDvlSBQIPVh5s0hVd-69">
          <mxGeometry relative="1" as="geometry" />
        </mxCell>
        <mxCell id="zJZzDvlSBQIPVh5s0hVd-109" style="edgeStyle=orthogonalEdgeStyle;rounded=0;orthogonalLoop=1;jettySize=auto;html=1;exitX=0.5;exitY=1;exitDx=0;exitDy=0;entryX=0.5;entryY=0;entryDx=0;entryDy=0;entryPerimeter=0;endArrow=block;endFill=0;" edge="1" parent="1" source="zJZzDvlSBQIPVh5s0hVd-65" target="zJZzDvlSBQIPVh5s0hVd-70">
          <mxGeometry relative="1" as="geometry" />
        </mxCell>
      </root>
    </mxGraphModel>
  </diagram>
</mxfile>
